{"title":"Rihanna - Cheers (Drink To That){M4A+MP4}(1080p) [VX][P2PDL]","uid":7692431,"size":54145738,"categoryP":"video","categoryS":"music_videos","magnet":"?xt=urn:btih:4c11114ac1e4968ad34e084730b5ab48dde1afb9&amp;dn=Rihanna+-+Cheers+%28Drink+To+That%29%7BM4A%2BMP4%7D%281080p%29+%5BVX%5D%5BP2PDL%5D&amp;tr=udp%3A%2F%2Ftracker.openbittorrent.com%3A80&amp;tr=udp%3A%2F%2Fopen.demonii.com%3A1337&amp;tr=udp%3A%2F%2Ftracker.coppersurfer.tk%3A6969&amp;tr=udp%3A%2F%2Fexodus.desync.com%3A6969","seeders":1,"leechers":3,"uploader":"Vitamin_X","files":-1,"time":1349276110,"description":"Cover: \n &lt;a href=&quot;\nhttp://www.shotpix.com/images/15307974195809306314.jpg&quot; rel=&quot;nofollow&quot; target=&quot;_NEW&quot;&gt;\nhttp://www.shotpix.com/images/15307974195809306314.jpg&lt;/a&gt;\n\n\nRelease Title: Rihanna - Cheers (Drink To That) (2011)\n\nRihanna thanks all her supporters who watched the preview cut but here's what you've been waiting for- from Rihanna to you: RIHANNA'S PERSONAL CUT of &quot;Cheers (Drink To That).&quot; (C) 2011 Island Def Jam.\n\n                        1080p Full HD MP4 Video\n                                  +\n                         96 Kbps/VBR M4A Audio\n\n\nSing Along!\nExclusive english subtitles included.\n\n\n\nGeneral\nFormat                         : MPEG-4\nFormat profile                 : Base Media / Version 2\nFile size                      : 47.3 MiB\nDuration                       : 4mn 39s\nOverall bit rate mode          : Variable\nOverall bit rate               : 1 419 Kbps\n\n\nVideo\nID                             : 1\nFormat                         : AVC\nFormat/Info                    : Advanced Video Codec\nFormat settings, ReFrames      : 8 frames\nBit rate                       : 1 286 Kbps\nWidth                          : 1 920 pixels\nHeight                         : 1 080 pixels\nDisplay aspect ratio           : 16:9\nFrame rate mode                : Variable\nFrame rate                     : 23.976 fps\nBit depth                      : 8 bits\nStream size                    : 42.8 MiB (91%)\nWriting library                : x264 core 120\n\n\nAudio\nID                             : 2\nFormat                         : AAC\nFormat/Info                    : Advanced Audio Codec\nFormat profile                 : LC\nBit rate mode                  : Variable\nBit rate                       : 125 Kbps\nChannel(s)                     : 2 channels\nChannel positions              : Front: L R\nSampling rate                  : 48.0 KHz\nStream size                    : 4.17 MiB (9%)\n\n\nSubtitle                       : Yes (English)\n\n\n\nScreens:\n\n &lt;a href=&quot;\nhttp://www.shotpix.com/images/47730495163079593237.jpg&quot; rel=&quot;nofollow&quot; target=&quot;_NEW&quot;&gt;\nhttp://www.shotpix.com/images/47730495163079593237.jpg&lt;/a&gt; &lt;a href=&quot;\nhttp://www.shotpix.com/images/98884454198567842972.jpg&quot; rel=&quot;nofollow&quot; target=&quot;_NEW&quot;&gt;\nhttp://www.shotpix.com/images/98884454198567842972.jpg&lt;/a&gt;\n\n\nThumbs:\n &lt;a href=&quot;\nhttp://www.shotpix.com/images/62683492890856324876.jpg&quot; rel=&quot;nofollow&quot; target=&quot;_NEW&quot;&gt;\nhttp://www.shotpix.com/images/62683492890856324876.jpg&lt;/a&gt;\n\n\n------------------------------------------------------------------------\n\n\nNotes:\n\n* Best played on VLC Media Player.\n* Install shark007 codecs in case of any kind of problem in playback (For non-VLC Media Player users).\n* Alternatively, install Core AVC codecs, the fastest decoder that there is coupled with Community Center Codec Pack and play on Windows Media Player Classic.\n* Read NFO\n* Help in seeding this torrent as much as you can. \n\n\n\nGreets to: srkfan, VYTO, MgB, staff members at ExtraTorrent, TPB,KAT, 1337x, PublicHD, Ahashare,\nSilverTorrent, TorrentMafia, P2PDL, and all others\n\n\nEncoder Notes: Looking For Early Access To Anything You Can Provide DVDScr, R5, DVDRips, BluRay, Direct Audio, Early Music\nReleases, Seedboxes, Links, Dedicated Servers anything u can provide, Advance / Promo CDs/DVDs. If You Got anything to\noffer contact me at &quot;&lt;a class=&quot;__cf_email__&quot; href=&quot;/cdn-cgi/l/email-protection&quot; data-cfemail=&quot;e98a86879d888a9da99d80879084c78c9c&quot;&gt;[email&amp;#160;protected]&lt;/a&gt;&lt;script cf-hash='f9e31' type=&quot;text/javascript&quot;&gt;\n/* &lt;![CDATA[ */!function(){try{var t=&quot;currentScript&quot;in document?document.currentScript:function(){for(var t=document.getElementsByTagName(&quot;script&quot;),e=t.length;e--;)if(t[e].getAttribute(&quot;cf-hash&quot;))return t[e]}();if(t&amp;&amp;t.previousSibling){var e,r,n,i,c=t.previousSibling,a=c.getAttribute(&quot;data-cfemail&quot;);if(a){for(e=&quot;&quot;,r=parseInt(a.substr(0,2),16),n=2;a.length-n;n+=2)i=parseInt(a.substr(n,2),16)^r,e+=String.fromCharCode(i);e=document.createTextNode(e),c.parentNode.replaceChild(e,c)}}}catch(u){}}();/* ]]&gt; */&lt;/script&gt;&quot;\n\n\nFacebook Fan Page: http : // www . facebook . com / p2pdl\n\n                                Enjoy!","torrent":{"xt":"urn:btih:4c11114ac1e4968ad34e084730b5ab48dde1afb9","amp;dn":"Rihanna+-+Cheers+%28Drink+To+That%29%7BM4A%2BMP4%7D%281080p%29+%5BVX%5D%5BP2PDL%5D","amp;tr":["udp%3A%2F%2Ftracker.openbittorrent.com%3A80","udp%3A%2F%2Fopen.demonii.com%3A1337","udp%3A%2F%2Ftracker.coppersurfer.tk%3A6969","udp%3A%2F%2Fexodus.desync.com%3A6969"],"infoHash":"4c11114ac1e4968ad34e084730b5ab48dde1afb9","infoHashBuffer":{"type":"Buffer","data":[76,17,17,74,193,228,150,138,211,78,8,71,48,181,171,72,221,225,175,185]},"announce":[],"urlList":[]}}